<?xml version="1.0" encoding="UTF-8"?>
<svg xmlns="http://www.w3.org/2000/svg" viewBox="0 0 420 120" role="img" aria-labelledby="title">
  <title>ThreatPulse Logo</title>
  <defs>
    <linearGradient id="blueGrad" x1="0%" y1="0%" x2="100%" y2="100%">
      <stop offset="0%" stop-color="#276ecd"/>
      <stop offset="100%" stop-color="#1bb2ff"/>
    </linearGradient>
    <linearGradient id="softBlue" x1="0%" y1="0%" x2="0%" y2="100%">
      <stop offset="0%" stop-color="#4c92ff"/>
      <stop offset="100%" stop-color="#1b76d8"/>
    </linearGradient>
  </defs>
  <rect width="420" height="120" rx="24" fill="none"/>
  <g transform="translate(18 15)">
    <path d="M54 23c-15 0-27 12-27 26 0 2 .2 3.9.7 5.7C19.2 58 8 69.7 8 84.5 8 101 21 114 37.5 114H90c20 0 36-16 36-36 0-18.2-13.7-33.2-31.6-35.6C96.1 36.3 92 32 86 29c-3.2-1.7-6.7-2.7-10.3-2.7-6.1 0-11.8 2.4-15.9 6.3-4.5-5.6-11.4-9.1-18.8-9.1z" fill="url(#blueGrad)" opacity="0.96"/>
    <path d="M57 32c-11.9 0-21.6 8.6-23 20.2-7.7 1.4-13.6 8.1-13.6 16.2 0 9.1 7.4 16.5 16.5 16.5H88c13.8 0 25-11.2 25-25 0-12.6-9.3-23-21.5-24.7C86 35.2 71.4 32 57 32z" fill="#0c1337"/>
    <path d="M46 38c-6.6 0-12 5.4-12 12v18c0 6.6 5.4 12 12 12h22c6.6 0 12-5.4 12-12V50c0-6.6-5.4-12-12-12H46z" fill="#1e325c" stroke="#78b5ff" stroke-width="3"/>
    <path d="M57 46.5c-3.9 0-7 3.1-7 7v12c0 3.9 3.1 7 7 7s7-3.1 7-7V53.5c0-3.9-3.1-7-7-7z" fill="#4da5ff" opacity="0.9"/>
    <circle cx="57" cy="46.5" r="3" fill="#0d1423"/>
    <path d="M84 53c0 13.8-11.2 25-25 25S34 66.8 34 53s11.2-25 25-25 25 11.2 25 25z" fill="none" stroke="#80c3ff" stroke-width="6" opacity="0.9"/>
    <path d="M90 62l18 18" stroke="#80c3ff" stroke-width="7" stroke-linecap="round"/>
    <circle cx="108" cy="80" r="9" fill="none" stroke="#80c3ff" stroke-width="7"/>
    <path d="M18 56c0-14 11.4-25.4 25.4-25.4 3.7 0 7.2.8 10.3 2.3 2.8-6.4 9.1-11 16.6-11 10.2 0 18.5 8.3 18.5 18.5 0 .7 0 1.4-.1 2.1 7.7 1.3 13.7 8.2 13.7 16.4 0 9.1-7.4 16.5-16.5 16.5H37.5C24.3 73.4 14 63.1 14 49.9z" fill="#0f1d40" opacity="0.55"/>
  </g>
  <text x="150" y="65" font-family="Segoe UI, Arial, sans-serif" font-size="28" font-weight="800" fill="#f8fbff">THREAT</text>
  <text x="150" y="95" font-family="Segoe UI, Arial, sans-serif" font-size="28" font-weight="800" fill="#61dafb">PULSE</text>
  <text x="150" y="115" font-family="Segoe UI, Arial, sans-serif" font-size="12" fill="#9bb7d6">Cloud threat intelligence dashboard</text>
</svg>
